<?xml version="1.0" encoding="UTF-8" standalone="no"?>
<!-- Created with Inkscape (http://www.inkscape.org/) -->

<svg
   width="16.933332mm"
   height="16.933332mm"
   viewBox="0 0 16.933332 16.933333"
   version="1.1"
   id="svg5"
   xml:space="preserve"
   inkscape:version="1.2.2 (b0a8486541, 2022-12-01)"
   sodipodi:docname="ddg.svg"
   inkscape:export-filename="ddg_.svg"
   inkscape:export-xdpi="96"
   inkscape:export-ydpi="96"
   xmlns:inkscape="http://www.inkscape.org/namespaces/inkscape"
   xmlns:sodipodi="http://sodipodi.sourceforge.net/DTD/sodipodi-0.dtd"
   xmlns="http://www.w3.org/2000/svg"
   xmlns:svg="http://www.w3.org/2000/svg"><sodipodi:namedview
     id="namedview7"
     pagecolor="#ffffff"
     bordercolor="#000000"
     borderopacity="0.25"
     inkscape:showpageshadow="2"
     inkscape:pageopacity="0.0"
     inkscape:pagecheckerboard="0"
     inkscape:deskcolor="#d1d1d1"
     inkscape:document-units="mm"
     showgrid="false"
     inkscape:zoom="4.4089684"
     inkscape:cx="60.444978"
     inkscape:cy="11.113711"
     inkscape:window-width="1920"
     inkscape:window-height="969"
     inkscape:window-x="0"
     inkscape:window-y="0"
     inkscape:window-maximized="1"
     inkscape:current-layer="svg5" /><defs
     id="defs2" /><path
     id="path60509"
     style="fill:none;stroke:#000000;stroke-width:0.52916667;stroke-linecap:round;stroke-dasharray:none"
     d="m 104.49418,52.728662 h 0.003 m -2.64883,-1.058333 h 0.003 m 1.5845,1.058333 h -1.5875 m 2.64583,-1.058333 h -1.5875 m -0.79375,-3.175 v 1.058333 m -1.32292,1.058333 h 4.7625 m -1.32291,-2.116666 v 1.058333 m -2.91041,-0.529168 h 3.70417 c 0.29316,0 0.52916,0.236008 0.52916,0.529167 v 3.704166 c 0,0.293159 -0.236,0.529167 -0.52916,0.529167 h -3.70417 c -0.29316,0 -0.52917,-0.236008 -0.52917,-0.529167 v -3.704166 c 0,-0.293159 0.23601,-0.529167 0.52917,-0.529167 z m 3.07566,5.722953 c 0,0 0.34901,0.41968 0.59159,0.520252 0.30683,0.127205 0.7401,-0.149279 0.99436,0.06444 0.36627,0.30786 0.28017,1.076895 0.3378,1.395083 m 2.025,0.118009 c 0,0 -0.33471,0.0075 -0.60039,-0.284965 -0.26569,-0.292488 -0.47112,-0.748345 -0.50282,-1.172377 -0.0591,-0.789729 0.016,-1.677212 0.60134,-2.298436 0.53525,-0.568008 1.36707,-0.776685 2.13325,-0.536908 0.632,0.197795 1.12855,0.653094 1.34148,1.293551 0.23105,0.695001 0.12523,1.395105 -0.20923,2.004395 -0.20475,0.373033 -0.71544,0.816196 -0.71544,0.816196 m 0,0 c 0,0 0.13302,1.045807 0.11479,1.419472 -0.0191,0.38896 -0.14917,0.7502 -0.32525,1.07929 -0.17092,0.319438 -0.35012,0.575414 -0.60515,0.841074 -0.45517,0.474269 -0.88551,0.730061 -1.45136,0.985082 -1.34654,0.638805 -3.11014,0.673936 -3.94799,-0.364491 -0.31543,-0.419072 -0.4436,-0.926324 -0.44618,-1.461666 m 0.056,-0.789476 c 0,0 -0.68104,-0.419008 -1.05907,-0.821594 -0.37804,-0.402583 -0.45307,-0.788744 0.0182,-1.216828 0.2723,-0.247326 0.6418,-0.127665 0.90774,-0.153706 0.33144,-0.03246 0.39786,-0.168593 0.77091,-0.272497 0.51613,-0.143771 1.05038,0.185066 1.20772,0.633032 0.053,0.150824 0.0879,0.291255 0.0723,0.462491 -0.0221,0.243327 -0.1056,0.39526 -0.18113,0.616735 -0.12342,0.361571 -0.4861,0.914498 -0.20439,1.299442 0.44854,0.612928 1.8033,0.03523 2.26618,-0.143059 m -3.16077,-2.868642 c 0,0 -0.48952,0.17179 -0.65654,0.315831 -0.16704,0.144041 -0.34565,0.548417 -0.34565,0.548417 m 4.92145,0.06964 c 0,0 -0.65531,0.208033 -0.93592,0.36346 -0.28059,0.155427 -0.74767,0.5691 -0.74767,0.5691 m 0.7981,-1.639223 c 0,0 -0.59319,0.254623 -0.87052,0.418069 -0.32353,0.190668 -0.9186,0.652196 -0.9186,0.652196 m -1.32175,0.106403 c 0,0 -0.37401,0.417665 -0.4891,0.731548 -0.11509,0.313883 -0.12757,1.118662 -0.12757,1.118662 m 2.96458,-8.545309 c 0.33623,-0.02475 0.67098,-0.02081 1.00108,0.01038 0.3301,0.03119 0.65555,0.08964 0.97318,0.173924 0.31764,0.08428 0.62746,0.194392 0.92629,0.32891 0.29884,0.134515 0.58668,0.293436 0.86038,0.475337 0.27369,0.181899 0.53323,0.386777 0.77545,0.613206 0.24221,0.226429 0.46711,0.474411 0.67151,0.742518 0.2044,0.268106 0.38831,0.556339 0.54856,0.86327 1.282,2.45545 0.71647,5.469358 -1.36846,7.293044 -2.08493,1.823683 -5.14728,1.983089 -7.41028,0.385729 -0.28287,-0.19967 -0.54407,-0.420302 -0.78259,-0.658566 -0.23852,-0.238263 -0.45437,-0.494157 -0.64655,-0.764352 -0.19218,-0.270195 -0.3607,-0.554691 -0.50455,-0.850157 -0.14386,-0.295467 -0.26306,-0.601903 -0.35662,-0.91598 -0.0935,-0.314076 -0.16145,-0.635793 -0.20271,-0.961819 -0.0413,-0.326027 -0.0559,-0.656362 -0.0429,-0.987678 0.013,-0.331315 0.0537,-0.663608 0.12293,-0.993552 0.0346,-0.164972 0.0764,-0.329356 0.12551,-0.492735"
     transform="translate(-98.494652,-47.347574)" /><g
     inkscape:label="Layer 1"
     inkscape:groupmode="layer"
     id="layer1"
     transform="translate(-94.096598,-49.768641)" /></svg>
