<?xml version="1.0" encoding="UTF-8" standalone="no"?>
<!-- Created with Inkscape (http://www.inkscape.org/) -->

<svg
   version="1.1"
   id="svg3550"
   width="512"
   height="512"
   viewBox="0 0 512 512"
   sodipodi:docname="icon.svg"
   inkscape:version="1.2.2 (b0a8486541, 2022-12-01)"
   inkscape:export-filename="icon.png"
   inkscape:export-xdpi="96"
   inkscape:export-ydpi="96"
   xmlns:inkscape="http://www.inkscape.org/namespaces/inkscape"
   xmlns:sodipodi="http://sodipodi.sourceforge.net/DTD/sodipodi-0.dtd"
   xmlns="http://www.w3.org/2000/svg"
   xmlns:svg="http://www.w3.org/2000/svg">
  <defs
     id="defs3554">
    <inkscape:path-effect
       effect="spiro"
       id="path-effect3016"
       is_visible="true"
       lpeversion="1" />
    <inkscape:path-effect
       effect="spiro"
       id="path-effect3016-7"
       is_visible="true"
       lpeversion="1" />
    <inkscape:path-effect
       effect="spiro"
       id="path-effect3016-6"
       is_visible="true"
       lpeversion="1" />
    <inkscape:path-effect
       effect="spiro"
       id="path-effect3016-9"
       is_visible="true"
       lpeversion="1" />
    <inkscape:path-effect
       effect="spiro"
       id="path-effect3016-2"
       is_visible="true"
       lpeversion="1" />
    <inkscape:path-effect
       effect="spiro"
       id="path-effect3016-0"
       is_visible="true"
       lpeversion="1" />
    <filter
       style="color-interpolation-filters:sRGB"
       inkscape:label="Drop Shadow"
       id="filter3870"
       x="-0.010479646"
       y="-0.010548453"
       width="1.0296923"
       height="1.0298873">
      <feFlood
         flood-opacity="0.498039"
         flood-color="rgb(0,0,0)"
         result="flood"
         id="feFlood3860" />
      <feComposite
         in="flood"
         in2="SourceGraphic"
         operator="in"
         result="composite1"
         id="feComposite3862" />
      <feGaussianBlur
         in="composite1"
         stdDeviation="3"
         result="blur"
         id="feGaussianBlur3864" />
      <feOffset
         dx="6"
         dy="6"
         result="offset"
         id="feOffset3866" />
      <feComposite
         in="SourceGraphic"
         in2="offset"
         operator="over"
         result="composite2"
         id="feComposite3868" />
    </filter>
    <filter
       style="color-interpolation-filters:sRGB;"
       inkscape:label="Drop Shadow"
       id="filter11937"
       x="-0.19982389"
       y="-0.19994831"
       width="1.4328515"
       height="1.433121">
      <feFlood
         flood-opacity="1"
         flood-color="rgb(243,198,226)"
         result="flood"
         id="feFlood11927" />
      <feComposite
         in="flood"
         in2="SourceGraphic"
         operator="in"
         result="composite1"
         id="feComposite11929" />
      <feGaussianBlur
         in="composite1"
         stdDeviation="15.0453"
         result="blur"
         id="feGaussianBlur11931" />
      <feOffset
         dx="6"
         dy="6"
         result="offset"
         id="feOffset11933" />
      <feComposite
         in="SourceGraphic"
         in2="offset"
         operator="over"
         result="fbSourceGraphic"
         id="feComposite11935" />
      <feColorMatrix
         result="fbSourceGraphicAlpha"
         in="fbSourceGraphic"
         values="0 0 0 -1 0 0 0 0 -1 0 0 0 0 -1 0 0 0 0 1 0"
         id="feColorMatrix11939" />
      <feFlood
         id="feFlood11941"
         flood-opacity="1"
         flood-color="rgb(243,198,226)"
         result="flood"
         in="fbSourceGraphic" />
      <feComposite
         in2="fbSourceGraphic"
         id="feComposite11943"
         in="flood"
         operator="in"
         result="composite1" />
      <feGaussianBlur
         id="feGaussianBlur11945"
         in="composite1"
         stdDeviation="15.0453"
         result="blur" />
      <feOffset
         id="feOffset11947"
         dx="6"
         dy="6"
         result="offset" />
      <feComposite
         in2="offset"
         id="feComposite11949"
         in="fbSourceGraphic"
         operator="over"
         result="composite2" />
    </filter>
  </defs>
  <sodipodi:namedview
     id="namedview3552"
     pagecolor="#ffffff"
     bordercolor="#000000"
     borderopacity="0.25"
     inkscape:showpageshadow="2"
     inkscape:pageopacity="0.0"
     inkscape:pagecheckerboard="0"
     inkscape:deskcolor="#d1d1d1"
     showgrid="false"
     showguides="true"
     inkscape:zoom="0.69551417"
     inkscape:cx="-37.382416"
     inkscape:cy="70.451476"
     inkscape:window-width="1920"
     inkscape:window-height="969"
     inkscape:window-x="0"
     inkscape:window-y="0"
     inkscape:window-maximized="1"
     inkscape:current-layer="svg3550" />
  <rect
     style="fill:#f9d8ec;fill-opacity:1;stroke:none;stroke-width:1.98141;stroke-linecap:round;stroke-linejoin:round"
     id="rect1308"
     width="512"
     height="512"
     x="0"
     y="0"
     ry="0.50917929" />
  <g
     id="g3904"
     transform="matrix(0.99048803,0,0,0.99048803,18.821685,2.4350671)"
     style="display:inline">
    <path
       id="path2704-61"
       style="display:inline;opacity:1;fill:#fcb8b8;stroke-width:5.9531;stroke-linecap:round"
       inkscape:label="cou_arriere"
       d="m 215.96626,178.32469 c 3.88886,5.7459 8.61024,11.0337 13.03985,16.3526 14.81673,17.7915 48.66836,49.5588 48.66836,49.5588 l 71.56513,88.5011 23.40255,-18.68 c -0.10823,-3.1783 -0.0514,-3.3449 -0.40501,-6.5035 l -101.08453,-100.849 -10.00905,-8.0063 -0.0601,-0.041 c -6.89952,-0.2722 -13.77185,-1.5154 -20.26806,-3.8186 -9.48448,-3.3626 -18.35517,-8.8289 -24.84917,-16.5144 z"
       sodipodi:nodetypes="cscccccccsc" />
    <path
       id="path2704-6"
       style="opacity:1;fill:#fcd4d4;stroke-width:5.9531;stroke-linecap:round"
       inkscape:label="cou_bas_avant"
       d="m 311.31473,208.49429 -41.66978,0.066 102.59219,98.9936 c -0.70124,-8.031 -2.14151,-15.9853 -4.35922,-23.6138 -4.01027,-13.7946 -12.76219,-25.9461 -21.49182,-37.3552 -13.87114,-13.3526 -24.54468,-24.5478 -35.07137,-38.0905 z" />
    <path
       id="path2704-0"
       style="opacity:1;fill:#fcbcbc;stroke-width:5.9531;stroke-linecap:round"
       inkscape:label="cou_haut"
       d="m 297.57337,189.38019 c -10.81242,6.8014 -23.70008,9.7815 -36.48697,9.2775 l 0.0572,0.041 8.50139,9.8618 41.66978,-0.066 c -4.52632,-5.8232 -9.02914,-12.0362 -13.74136,-19.1141 z" />
    <path
       style="opacity:1;fill:#fc3c3c;stroke-width:5.9531;stroke-linecap:round"
       d="m 404.86777,178.32439 -84.12536,-15.9066 -16.86274,22.38563 z"
       id="path3150"
       inkscape:label="bec_bas"
       sodipodi:nodetypes="cccc" />
    <path
       style="opacity:1;fill:#fc6c6c;stroke-width:5.9531;stroke-linecap:round"
       d="m 404.86777,178.32439 -79.07045,-44.2042 -5.05491,28.2976 z"
       id="path3120"
       inkscape:label="bec_haut"
       sodipodi:nodetypes="cccc" />
    <path
       id="path3014-7"
       style="opacity:1;fill:#fc9c9c;stroke-width:5.9531;stroke-linecap:round"
       inkscape:label="crane_bas"
       d="m 221.56958,133.92639 -17.67715,8.4171 c -0.0679,3.4498 0.14116,6.9016 0.66759,10.3143 1.43998,9.3349 5.25413,18.3588 11.33357,25.5875 6.50013,7.7289 15.40346,13.2192 24.92184,16.5939 18.53661,6.5719 40.11049,5.0128 56.75794,-5.459 10.18055,-6.4039 18.34039,-15.9471 23.16904,-26.9624 3.88365,-8.8596 5.56836,-18.638 5.05491,-28.2976 z" />
    <path
       id="path3014-9"
       style="opacity:1;fill:#fc8c8c;stroke-width:5.9531;stroke-linecap:round"
       inkscape:label="joues_bas"
       d="m 221.56958,133.92639 c 0,0 8.77624,25.1823 15.73057,36.4357 6.48941,10.501 23.84341,28.3363 23.84341,28.3363 12.76743,0.4923 25.63399,-2.5273 36.42981,-9.3182 10.18055,-6.4039 18.34039,-15.9471 23.16904,-26.9624 3.88365,-8.8596 5.56836,-18.638 5.05491,-28.2976 z"
       sodipodi:nodetypes="cscsscc" />
    <path
       id="path3014-2"
       style="opacity:1;fill:#fcc8c8;stroke-width:5.9531;stroke-linecap:round"
       inkscape:label="crane_arriere"
       d="m 222.10443,96.99959 c -7.17402,7.8305 -12.47327,17.4112 -15.45249,27.6261 -1.67776,5.7525 -2.64164,11.7313 -2.75951,17.7178 l 17.67715,-8.4171 z" />
    <path
       id="path3713"
       style="opacity:1;fill:#fcc0c0;stroke-width:5.9531;stroke-linecap:round"
       d="m 325.79732,134.12019 c 1.3256,16.7251 -8.31361,29.5253 -24.8283,38.3027 -16.51468,8.7774 -37.29766,8.9022 -53.95173,0.3241 -8.32704,-4.2891 -15.72025,-13.2655 -20.00042,-21.8983 -4.28017,-8.6329 -5.44729,-16.9223 -5.44729,-16.9223"
       sodipodi:nodetypes="csssc"
       inkscape:label="joues_haut" />
    <path
       id="path3014-1"
       style="opacity:1;fill:#fcf8f8;stroke-width:5.9531;stroke-linecap:round"
       inkscape:label="crane_avant"
       d="m 265.69075,76.92239 c -2.40415,0.052 -4.80428,0.2515 -7.18365,0.5978 -9.51744,1.3851 -18.67432,5.1127 -26.50893,10.6912 -3.60641,2.5678 -6.90885,5.5301 -9.89374,8.7882 l -0.53485,36.9268 104.22774,0.1938 c -0.12494,-2.3504 -0.34242,-4.6959 -0.73348,-7.017 -1.74943,-10.3835 -6.16003,-20.3238 -12.78697,-28.5068 -6.62692,-8.183 -15.46526,-14.5798 -25.35591,-18.1927 -6.77539,-2.4749 -14.01776,-3.6385 -21.23021,-3.4813 z" />
    <ellipse
       style="opacity:1;fill:#fc9494;stroke-width:6.00891;stroke-linecap:round"
       id="path3718-3-6"
       cx="274.62683"
       cy="139.02121"
       rx="20.20808"
       ry="22.479467"
       inkscape:label="cernes" />
    <ellipse
       style="opacity:1;fill:#000000;fill-opacity:1;stroke-width:5.9531;stroke-linecap:round"
       id="path3718"
       cx="274.03424"
       cy="132.12204"
       rx="21.151907"
       ry="21.079609"
       inkscape:label="oeil" />
    <ellipse
       style="opacity:1;fill:#ffffff;fill-opacity:1;stroke-width:2.151;stroke-linecap:round"
       id="path3718-3"
       cx="269.52979"
       cy="125.35898"
       rx="7.6426907"
       ry="7.6165671"
       inkscape:label="iris" />
    <path
       id="path2704-8-0"
       style="display:inline;opacity:1;fill:#e0cce8;stroke-width:5.9531;stroke-linecap:round"
       inkscape:label="ventre_8"
       d="m 74.044259,356.99429 c 0,0 5.42224,14.1287 10.43343,19.5588 1.195362,1.2953 2.463121,2.5365 3.765261,3.7479 l 51.36004,-0.07 0.39242,-7.299 -15.12208,-15.7063 z" />
    <path
       id="path2704-8-2"
       style="display:inline;opacity:1;fill:#a860c0;stroke-width:5.9531;stroke-linecap:round"
       inkscape:label="ventre_7"
       d="m 145.88844,380.23119 -57.645489,0.07 c 7.43767,6.919 16.503309,12.3967 26.108769,15.4118 15.50912,2.2462 29.6953,1.8166 44.87016,1.465 l 0.0184,-0.029 z" />
    <path
       id="path2704-8-9"
       style="display:inline;opacity:1;fill:#c898d8;stroke-width:5.9531;stroke-linecap:round"
       inkscape:label="ventre_6"
       d="m 121.79213,351.37749 c 3.03278,3.1752 5.69246,5.86 5.69246,5.86 l -4.30107,-0.019 c 0,0 3.37706,9.5315 6.22828,13.6348 2.61447,3.7626 6.40675,6.5553 9.72611,9.7135 3.10734,2.9566 6.53691,5.573 9.53426,8.6409 1.48109,1.516 3.33777,2.8549 4.15865,4.8088 0.42,0.9998 0.27649,3.2046 0.27227,3.2682 5.63564,-0.1227 11.34551,-0.2641 17.3167,-0.3187 0,0 1.25381,1.1478 3.27789,2.9339 l 2.42911,-4.8321 -10.73962,-15.2877 z" />
    <path
       id="path2704-8-9-0"
       style="display:inline;fill:#a04cbc;stroke-width:5.9531;stroke-linecap:round"
       inkscape:label="ventre_6"
       d="m 138.77553,380.23119 c 0.12011,0.1123 0.2434,0.222 0.36238,0.3353 3.10734,2.9565 6.53691,5.5729 9.53426,8.6409 1.48109,1.5159 3.33777,2.8548 4.15865,4.8088 0.42,0.9997 0.27648,3.2045 0.27227,3.2682 5.63563,-0.1228 11.34552,-0.2642 17.3167,-0.3188 0,0 1.25381,1.1478 3.27789,2.9339 l 2.42911,-4.8321 -10.42277,-14.8362 z" />
    <path
       id="path2704-8-7"
       style="display:inline;opacity:1;fill:#9434b4;stroke-width:5.9531;stroke-linecap:round"
       inkscape:label="ventre_5"
       d="m 157.68613,378.59369 12.73366,18.3719 c 0,0 19.22441,17.6716 30.68309,23.606 14.41848,7.4672 30.32321,13.5139 46.53672,14.3935 3.30189,0.1791 6.62768,0.1497 9.95671,0.026 l -0.0891,-9.2611 -44.87403,-38.6738 z" />
    <path
       style="opacity:1;fill:#a85cc0;fill-opacity:1;stroke-width:5.9531;stroke-linecap:round"
       d="m 255.62648,435.07549 c 0,0 -12.09319,-4.6817 -17.11042,-8.6372 -11.61599,-9.1578 -28.69027,-33.8533 -28.69027,-33.8533 l 98.15911,-29.953 -4.22196,31.9158 -29.81989,32.9331 z"
       id="path4565"
       sodipodi:nodetypes="csccccc"
       inkscape:label="ventre_4" />
    <path
       id="path2704"
       style="display:inline;opacity:1;fill:#d4b0e0;stroke-width:5.9531;stroke-linecap:round"
       inkscape:label="ventre_3"
       d="m 372.64215,314.05719 -23.40255,18.68 -39.64763,39.8831 -36.69723,45.8671 -17.26826,16.5881 c 16.23376,-0.3167 32.66872,-4.1661 47.3603,-10.8442 16.68864,-7.586 31.82641,-19.5676 43.38866,-33.7934 11.4704,-14.1127 20.29856,-31.1857 24.01976,-48.9871 1.86251,-8.9099 2.5613,-18.1622 2.24695,-27.3936 z" />
    <path
       style="opacity:1;fill:#b87ccc;fill-opacity:1;stroke-width:5.9531;stroke-linecap:round"
       d="m 272.89507,418.48739 c 0,0 14.12128,-8.4617 20.47809,-13.6459 5.31195,-4.3321 10.16561,-9.2521 14.61174,-14.4689 9.89748,-11.6132 26.64591,-37.2214 26.64591,-37.2214 l -15.43094,-39.068 c 0,0 -7.06501,38.2587 -14.74825,55.9489 -4.23728,9.7562 -11.17634,18.1035 -16.99694,27.0062 -4.72873,7.2326 -14.55961,21.4491 -14.55961,21.4491 z"
       id="path4479"
       sodipodi:nodetypes="cssccssc"
       inkscape:label="ventre_2" />
    <path
       style="opacity:1;fill:#e4d0ec;fill-opacity:1;stroke-width:5.9531;stroke-linecap:round"
       d="m 307.9849,390.37259 c 0,0 12.29578,-9.8904 17.17052,-16.0129 9.98436,-12.5402 24.08418,-41.6225 24.08418,-41.6225 l -28.29856,-35.2292 c 0,0 2.18917,23.4946 1.51552,35.2292 -0.59579,10.3783 -2.32333,20.7275 -4.8971,30.7992 -2.35152,9.202 -9.57456,26.8362 -9.57456,26.8362 z"
       id="path4143"
       sodipodi:nodetypes="csccssc"
       inkscape:label="ventre_1" />
    <path
       id="path2704-8-92"
       style="display:inline;opacity:1;fill:#fcc8c8;stroke-width:5.9531;stroke-linecap:round"
       inkscape:label="aile_3"
       d="m 82.534989,230.74279 c 0,0 -5.65683,23.171 -4.67896,34.8515 0.48532,5.797 1.67308,11.5129 3.29533,17.1345 l 90.091061,24.4674 -8.53336,-28.7966 -32.68296,-22.3784 c 0.71788,2.5549 1.46513,5.0195 2.20141,6.8765 2.5735,6.4908 9.81622,18.5046 9.81622,18.5046 0,0 -17.25034,-6.5951 -24.80653,-11.756 -7.81877,-5.3402 -14.42355,-12.3688 -20.6692,-19.4852 -5.26777,-6.0021 -14.033011,-19.4183 -14.033011,-19.4183 z" />
    <path
       id="path2704-8-75"
       style="display:inline;opacity:1;fill:#fcacac;stroke-width:5.9531;stroke-linecap:round"
       inkscape:label="aile_2"
       d="m 79.800669,277.53439 c 2.43695,10.4576 6.624031,20.6083 11.150441,30.3158 3.720421,7.979 8.49422,15.4381 13.63865,22.6265 l 17.20237,8.4655 83.99456,9.4907 -41.12718,-49.0947 -13.85472,-3.5298 c 0,0 -27.59133,-5.2173 -41.1514,-8.8095 -10.08774,-2.6724 -29.804901,-9.4481 -29.852721,-9.4645 z" />
    <path
       id="path2704-8-3"
       style="display:inline;opacity:1;fill:#fc8888;stroke-width:5.9531;stroke-linecap:round"
       inkscape:label="aile_1"
       d="m 100.73633,324.94889 c 3.43195,5.1478 7.12619,10.1345 10.89367,15.0155 4.77536,6.1868 15.85459,17.2731 15.85459,17.2731 l 85.63146,2.3472 -15.25327,-14.8047 c 0,0 -27.98227,-4.743 -41.97887,-7.0819 -9.10551,-1.5216 -18.3263,-2.4555 -27.3238,-4.522 -9.41635,-2.1627 -27.75658,-8.205 -27.82378,-8.2272 z"
       sodipodi:nodetypes="cscccssc" />
    <path
       id="path5116-8"
       style="display:inline;opacity:1;fill:#0000c0;fill-opacity:1;stroke-width:5.9531;stroke-linecap:round"
       inkscape:label="aile_5"
       d="m 109.65339,286.99889 c 0,0 4.43843,11.5126 7.65357,16.7373 3.34466,5.4351 7.32109,10.566 11.95465,14.9544 7.91669,7.4978 16.87772,14.1153 26.6223,19.0075 5.48393,2.7532 6.62504,2.9035 14.37494,5.2663 l -7.02076,-49.371 -15.08042,-3.2013 c 1.95395,2.6741 3.86409,5.2293 3.86409,5.2293 z"
       sodipodi:nodetypes="csssccccc" />
    <path
       id="path5116-9"
       style="display:inline;opacity:1;fill:#000084;fill-opacity:1;stroke-width:5.9531;stroke-linecap:round"
       inkscape:label="aile_6"
       d="m 154.8055,291.32609 -3.14418,3.8069 c 0.0247,0.033 0.36044,0.4884 0.36044,0.4884 l -0.62302,-0.127 c 0,0 -0.25628,16.2499 1.68303,24.0479 1.84727,7.4279 9.27649,20.9828 9.27649,20.9828 16.37008,5.8076 30.43891,11.0483 45.79043,12.2499 l 6.98235,-2.1175 z"
       sodipodi:nodetypes="ccccscccc" />
    <path
       id="path5116-2"
       style="display:inline;opacity:1;fill:#0000c8;fill-opacity:1;stroke-width:5.9531;stroke-linecap:round"
       inkscape:label="aile_4"
       d="m 115.93494,345.06439 c 0,0 6.65606,7.4942 9.95673,11.617 3.37167,4.2114 6.51738,8.7015 10.59428,12.2346 8.69768,7.5377 18.53014,13.9938 29.05044,18.6616 13.68614,6.0725 28.41895,10.7634 43.36056,11.7299 6.69156,0.4328 13.48908,0.4925 20.28066,0.1899 l -43.6929,-49.1373 z"
       sodipodi:nodetypes="cssssccc" />
    <path
       id="path5116-3-6"
       style="display:inline;opacity:1;fill:#000050;fill-opacity:1;stroke-width:5.9531;stroke-linecap:round"
       inkscape:label="aile_6"
       d="m 311.03374,330.33519 -74.93119,34.1005 -14.43511,3.5143 27.3742,29.4245 c 8.1374,-1.4566 16.10004,-3.6418 23.67579,-6.736 14.24374,-5.8176 27.3544,-15.6048 37.00922,-27.5845 6.0796,-7.5435 10.10652,-16.9651 12.02151,-26.4624 0.25958,-1.2874 0.4686,-2.5957 0.68697,-3.9 z" />
    <path
       id="path5116"
       style="display:inline;opacity:1;fill:#000084;fill-opacity:1;stroke-width:5.9531;stroke-linecap:round"
       inkscape:label="aile_5"
       d="m 185.48471,350.36009 30.55228,49.2642 c 13.99167,0.3991 28.26346,-0.7153 41.81318,-4.1383 l -42.71913,-44.8285 -6.9821,2.1171 -22.66036,-2.4145 z" />
    <path
       id="path1482-9"
       style="display:inline;opacity:1;fill:#60fcfc;stroke-width:5.9531;stroke-linecap:round"
       inkscape:label="aile_12"
       d="m 251.89319,242.71879 c -1.88381,0.011 -3.04922,0.048 -3.04922,0.048 l -67.46558,0.156 21.1275,23.2756 104.25466,-0.5381 c -0.96478,-1.2224 -1.92547,-2.4278 -2.95075,-3.5809 -7.194,-8.0906 -17.35291,-13.6602 -27.6362,-17.0463 -6.51188,-2.1442 -18.62895,-2.3465 -24.28041,-2.3138 z"
       sodipodi:nodetypes="sccccsss" />
    <path
       id="path1482-2"
       style="display:inline;opacity:1;fill:#1cccfc;stroke-width:5.9531;stroke-linecap:round"
       inkscape:label="aile_11"
       d="m 181.98784,242.92129 -54.16994,0.125 c 0,0 0.0368,0.1961 0.0378,0.2025 l 9.16994,9.9499 46.29061,14.6241 22.0974,-1.2519 z" />
    <path
       id="path1482-5"
       style="display:inline;opacity:1;fill:#00acf4;stroke-width:5.9531;stroke-linecap:round"
       inkscape:label="aile_7"
       d="m 127.81117,243.04499 c 0,0 1.16827,7.4837 3.74297,16.5561 2.66445,9.3887 7.10611,19.1795 11.2173,25.3056 2.31903,3.4556 5.53658,7.809 8.07118,11.1097 5.60612,7.3007 11.93627,14.1416 18.37183,20.7228 11.01585,11.2651 22.35924,22.2862 34.61209,32.1917 0.93676,0.7573 1.87118,1.5412 2.80506,2.3138 l 42.71761,-41.894 59.78737,-40.4679 c -1.2313,-1.7278 -2.51981,-3.3972 -3.86894,-5.0065 -13.99729,0.047 -47.95076,0.1564 -70.06232,0.1299 -10.90012,-0.013 -21.81462,0.4334 -32.69943,-0.1444 -10.70936,-0.5685 -21.50021,-1.3161 -32.02985,-3.3508 -9.59583,-1.8543 -19.28142,-4.0599 -28.17744,-8.1071 -5.50371,-2.5543 -10.11677,-6.6308 -14.48743,-9.3589 z"
       sodipodi:nodetypes="ssssssccccsssccs" />
    <path
       id="path1482-5-3"
       style="display:inline;fill:#4cd8fc;stroke-width:5.9531;stroke-linecap:round"
       inkscape:label="aile_8"
       d="m 202.74172,263.87419 46.60248,45.4931 0.15962,-45.3873 c -5.22872,0 -9.78592,0.032 -14.2985,0.026 -11.45971,-0.1448 -22.70741,0.3533 -32.4636,-0.132 z"
       sodipodi:nodetypes="ccccc" />
    <path
       style="opacity:1;fill:#00d4fc;stroke-width:5.9531;stroke-linecap:round"
       d="m 249.33755,309.66519 55.97147,-45.8171 -55.97147,0.1321 z"
       id="path1938"
       inkscape:label="aile_9"
       sodipodi:nodetypes="cccc" />
    <path
       id="path1482-56"
       style="display:inline;opacity:1;fill:#0060fc;stroke-width:5.9531;stroke-linecap:round"
       inkscape:label="aile_15"
       d="m 305.30902,263.84809 -103.04342,83.7922 c 0.52169,0.4284 1.03596,0.8662 1.56094,1.2906 8.50982,6.8795 16.78618,14.6364 26.89749,18.8205 12.93039,5.3506 27.52821,9.4856 41.34615,7.2747 15.45572,-2.473 32.85264,-8.9833 42.1368,-21.5848 9.97379,-13.5376 10.87936,-33.419 8.8192,-50.1072 -1.78022,-14.4207 -8.28958,-28.3516 -17.71716,-39.486 z"
       sodipodi:nodetypes="ccsssssc" />
    <path
       id="path1482-56-2"
       style="display:inline;fill:#00b0fc;stroke-width:5.9531;stroke-linecap:round"
       inkscape:label="aile_14"
       d="m 305.3093,263.84819 -54.57592,44.3789 -1.39622,1.4379 9.9e-4,64.178 73.81692,-69.3443 c -0.0442,-0.3871 -0.0815,-0.7808 -0.12887,-1.1646 -1.78021,-14.4207 -8.2893,-28.3515 -17.71687,-39.4859 z" />
    <path
       id="path1482-56-1"
       style="display:inline;fill:#0084fc;stroke-width:5.9531;stroke-linecap:round"
       inkscape:label="aile_13"
       d="m 249.34394,309.36759 -31.99308,26.006 -0.31974,0.2597 -14.76552,12.007 c 0.52169,0.4284 1.03596,0.8662 1.56094,1.2906 8.50981,6.8795 16.78619,14.6364 26.89749,18.8205 5.93211,2.4547 12.21639,4.644 18.6141,6.0916 z" />
  </g>
</svg>
