<?xml version="1.0" encoding="UTF-8" standalone="no"?>
<!-- Created with Inkscape (http://www.inkscape.org/) -->

<svg
   width="16.933332mm"
   height="16.933332mm"
   viewBox="0 0 16.933332 16.933333"
   version="1.1"
   id="svg5"
   xml:space="preserve"
   inkscape:version="1.2.2 (b0a8486541, 2022-12-01)"
   sodipodi:docname="echo.svg"
   inkscape:export-filename="ddg_.svg"
   inkscape:export-xdpi="96"
   inkscape:export-ydpi="96"
   xmlns:inkscape="http://www.inkscape.org/namespaces/inkscape"
   xmlns:sodipodi="http://sodipodi.sourceforge.net/DTD/sodipodi-0.dtd"
   xmlns="http://www.w3.org/2000/svg"
   xmlns:svg="http://www.w3.org/2000/svg"><sodipodi:namedview
     id="namedview7"
     pagecolor="#ffffff"
     bordercolor="#000000"
     borderopacity="0.25"
     inkscape:showpageshadow="2"
     inkscape:pageopacity="0.0"
     inkscape:pagecheckerboard="0"
     inkscape:deskcolor="#d1d1d1"
     inkscape:document-units="mm"
     showgrid="false"
     inkscape:zoom="9.1331565"
     inkscape:cx="51.022886"
     inkscape:cy="45.876801"
     inkscape:window-width="1920"
     inkscape:window-height="969"
     inkscape:window-x="0"
     inkscape:window-y="0"
     inkscape:window-maximized="1"
     inkscape:current-layer="svg5" /><defs
     id="defs2" /><g
     id="g17770"
     style="stroke-width:0.52916667;stroke-dasharray:none"><path
       id="path1417"
       style="display:inline;fill:none;stroke:#000000;stroke-width:0.52916667;stroke-linecap:round;stroke-linejoin:round;stroke-dasharray:none"
       d="M 16.440031,12.240705 11.983655,3.0112892 C 10.864368,3.4588427 9.669995,3.688825 8.4645457,3.6889109 7.2598339,3.6874165 6.0664466,3.4563197 4.9482635,3.0079905 L 0.49330088,12.233636 c 2.51029362,1.112816 5.22535242,1.689019 7.97124482,1.6917 2.7468183,1.38e-4 5.4633613,-0.573667 7.9754853,-1.684631 z"
       sodipodi:nodetypes="ccccccc" /><path
       id="path60509"
       style="fill:none;stroke:#000000;stroke-width:0.52916667;stroke-linecap:round;stroke-dasharray:none"
       d="m 4.3252157,4.4982949 c 0,0 0.225235,1.4835304 0.7300402,1.9680271 C 5.4630226,6.8576842 6.2402003,6.6207366 6.6678313,6.9902897 7.0806686,7.347058 7.3396977,8.1576739 7.39397,8.457323 m 1.9070158,0.1111334 c 0,0 -0.3152087,0.00706 -0.5654091,-0.2683618 C 8.4853668,8.0246481 8.2919061,7.5953509 8.262053,7.1960247 8.2063964,6.4523084 8.2771208,5.6165335 8.8283566,5.0315045 9.3324209,4.4965909 10.115775,4.3000722 10.837315,4.525879 c 0.595175,0.1862706 1.062796,0.6150421 1.26332,1.2181835 0.217587,0.6545077 0.117933,1.3138208 -0.19704,1.8876113 -0.192821,0.3512987 -0.673756,0.7686412 -0.673756,0.7686412 m 0,0 c 0,0 0.12527,0.9848741 0.108106,1.3367679 -0.01799,0.3662981 -0.140478,0.7064911 -0.306299,1.0164061 -0.160961,0.300826 -0.329722,0.541888 -0.569892,0.792071 -0.42865,0.446635 -0.8339161,0.687524 -1.366797,0.927686 C 7.8268673,13.074832 6.1660215,13.107917 5.3769878,12.129992 5.0799361,11.735337 4.9592337,11.257639 4.956804,10.753488 m 0.052738,-0.743477 c 0,0 -0.6413599,-0.3945955 -0.9973645,-0.7737254 C 3.6561628,8.8571587 3.5855044,8.493497 4.0293164,8.0903549 4.2857512,7.857439 4.6337227,7.9701281 4.8841679,7.9456044 5.196297,7.9150356 5.2588471,7.7868343 5.6101617,7.688984 6.09622,7.5535897 6.5993426,7.8632675 6.7475153,8.2851332 6.7974273,8.4271696 6.8302934,8.5594185 6.8156032,8.7206776 6.7947902,8.9498275 6.7161552,9.0929082 6.6450264,9.3014792 6.5287974,9.6419838 6.1872485,10.162695 6.4525451,10.52521 6.8749514,11.102428 8.1507778,10.55839 8.5866886,10.390487 M 5.610077,7.688983 c 0,0 -0.4609987,0.161781 -0.6182874,0.2974297 -0.1573077,0.1356485 -0.3255112,0.516464 -0.3255112,0.516464 m 4.6347074,0.065581 c 0,0 -0.6171292,0.1959123 -0.8813897,0.3422835 C 8.1553543,9.0571137 7.7154882,9.4466846 7.7154882,9.4466846 M 8.4670877,7.9029691 c 0,0 -0.5586283,0.2397877 -0.8198,0.3937107 C 7.3426076,8.4762388 6.7822088,8.9108762 6.7822088,8.9108762 M 5.5374692,9.0110803 c 0,0 -0.3522189,0.3933302 -0.4606032,0.6889256 C 4.9684816,9.9956 4.9567286,10.753489 4.9567286,10.753489"
       sodipodi:nodetypes="caaccccccccccccccccccccccccccccccccccccsc" /></g></svg>
