<?xml version="1.0" encoding="UTF-8" standalone="no"?>
<!-- Created with Inkscape (http://www.inkscape.org/) -->

<svg
   width="16.933332mm"
   height="16.933332mm"
   viewBox="0 0 16.933332 16.933333"
   version="1.1"
   id="svg5"
   xml:space="preserve"
   inkscape:version="1.2.2 (b0a8486541, 2022-12-01)"
   sodipodi:docname="growth.svg"
   xmlns:inkscape="http://www.inkscape.org/namespaces/inkscape"
   xmlns:sodipodi="http://sodipodi.sourceforge.net/DTD/sodipodi-0.dtd"
   xmlns="http://www.w3.org/2000/svg"
   xmlns:svg="http://www.w3.org/2000/svg"><sodipodi:namedview
     id="namedview7"
     pagecolor="#ffffff"
     bordercolor="#000000"
     borderopacity="0.25"
     inkscape:showpageshadow="2"
     inkscape:pageopacity="0.0"
     inkscape:pagecheckerboard="0"
     inkscape:deskcolor="#d1d1d1"
     inkscape:document-units="mm"
     showgrid="false"
     inkscape:zoom="4.8784743"
     inkscape:cx="50.32311"
     inkscape:cy="52.475422"
     inkscape:window-width="1920"
     inkscape:window-height="969"
     inkscape:window-x="0"
     inkscape:window-y="0"
     inkscape:window-maximized="1"
     inkscape:current-layer="layer1" /><defs
     id="defs2" /><g
     inkscape:label="Layer 1"
     inkscape:groupmode="layer"
     id="layer1"
     transform="translate(-94.096598,-49.768641)"><path
       id="path1477"
       style="font-weight:bold;font-size:2.11667px;font-family:Anton;-inkscape-font-specification:'Anton Bold';stroke-width:0.52916667;stroke-linecap:round;fill:none;stroke:#000000;stroke-dasharray:none"
       d="m 97.318005,52.768479 a 0.52916666,0.52916666 0 0 0 -0.504032,0.386291 l -0.660135,2.391834 a 0.52916666,0.52916666 0 0 0 0.502708,0.661458 h 4.233334 a 0.52916666,0.52916666 0 0 0 0.50932,-0.672042 l -0.66807,-2.370666 a 0.52916666,0.52916666 0 0 0 -0.508,-0.396875 z m 2.248961,-0.793751 a 0.79374999,0.79374999 0 0 1 -0.79375,0.79375 0.79374999,0.79374999 0 0 1 -0.79375,-0.79375 0.79374999,0.79374999 0 0 1 0.79375,-0.79375 0.79374999,0.79374999 0 0 1 0.79375,0.79375 z m 0.429833,5.193787 c 0,0 0.349011,0.41968 0.591591,0.520251 0.30683,0.127205 0.7401,-0.149278 0.99436,0.06444 0.36627,0.30786 0.28017,1.076895 0.3378,1.395083 m 2.025,0.118009 c 0,0 -0.33471,0.0075 -0.60039,-0.284966 -0.26569,-0.292487 -0.47112,-0.748344 -0.50282,-1.172377 -0.0591,-0.789729 0.016,-1.677212 0.60134,-2.298436 0.53525,-0.568008 1.36707,-0.776684 2.13325,-0.536908 0.632,0.197795 1.12855,0.653094 1.34148,1.293551 0.23105,0.695001 0.12523,1.395105 -0.20923,2.004395 -0.20475,0.373033 -0.71544,0.816196 -0.71544,0.816196 m 0,0 c 0,0 0.13302,1.045807 0.11479,1.419472 -0.0191,0.38896 -0.14917,0.7502 -0.32525,1.07929 -0.17092,0.319438 -0.35012,0.575414 -0.60515,0.841074 -0.45517,0.474269 -0.88551,0.730061 -1.45136,0.985082 -1.34654,0.638805 -3.11014,0.673937 -3.947991,-0.364491 C 99.46335,62.629108 99.33518,62.121857 99.3326,61.586515 m 0.056,-0.789476 c 0,0 -0.681048,-0.419008 -1.059078,-0.821594 -0.37804,-0.402583 -0.45307,-0.788745 0.0182,-1.216829 0.2723,-0.247326 0.6418,-0.127665 0.90774,-0.153706 0.331447,-0.03246 0.397867,-0.168593 0.770918,-0.272497 0.51613,-0.14377 1.05038,0.185067 1.20772,0.633032 0.053,0.150825 0.0879,0.291256 0.0723,0.462492 -0.0221,0.243326 -0.1056,0.395259 -0.18113,0.616735 -0.12342,0.361571 -0.4861,0.914498 -0.20439,1.299442 0.44854,0.612928 1.8033,0.03523 2.26618,-0.143059 m -3.16077,-2.868642 c 0,0 -0.48952,0.17179 -0.65654,0.315831 -0.167048,0.144041 -0.345658,0.548416 -0.345658,0.548416 m 4.921458,0.06964 c 0,0 -0.65531,0.208033 -0.93592,0.36346 -0.28059,0.155427 -0.74767,0.5691 -0.74767,0.5691 m 0.7981,-1.639223 c 0,0 -0.59319,0.254623 -0.87052,0.418069 -0.32353,0.190668 -0.9186,0.652196 -0.9186,0.652196 m -1.321751,0.106404 c 0,0 -0.374009,0.417664 -0.489099,0.731548 -0.11509,0.313883 -0.12757,1.118662 -0.12757,1.118662 m 2.96458,-8.54531 c 0.33623,-0.02475 0.67098,-0.02081 1.00108,0.01038 0.3301,0.03119 0.65555,0.08964 0.97318,0.173923 0.31764,0.08428 0.62746,0.194393 0.92629,0.32891 0.29884,0.134516 0.58668,0.293437 0.86038,0.475337 0.27369,0.181899 0.53323,0.386777 0.77545,0.613206 0.24221,0.226429 0.46711,0.474411 0.67151,0.742518 0.2044,0.268106 0.38831,0.556339 0.54856,0.86327 1.282,2.455451 0.71647,5.469359 -1.36846,7.293044 -2.08493,1.823684 -5.14728,1.983089 -7.410283,0.385729 -0.282875,-0.19967 -0.544069,-0.420302 -0.78259,-0.658565 -0.23852,-0.238263 -0.454367,-0.494157 -0.646549,-0.764352 -0.192182,-0.270195 -0.360698,-0.554691 -0.504556,-0.850157 -0.143859,-0.295467 -0.26306,-0.601903 -0.356611,-0.91598 -0.09355,-0.314076 -0.161454,-0.635793 -0.202715,-0.961819 -0.04126,-0.326027 -0.05588,-0.656362 -0.04286,-0.987678 0.01301,-0.331315 0.05366,-0.663608 0.122935,-0.993552 0.03463,-0.164972 0.07643,-0.329356 0.125502,-0.492735"
       transform="translate(-1.2291667e-6)" /><path
       d="m 98.747911,55.406043 q -0.107487,0 -0.185002,-0.01137 -0.07648,-0.01034 -0.137459,-0.03824 -0.06098,-0.02791 -0.121957,-0.07855 l 0.125057,-0.21394 q 0.135393,0.08062 0.270785,0.08062 0.08888,0 0.132292,-0.05684 0.04341,-0.05684 0.04341,-0.147795 v -0.151929 q -0.04444,0.159164 -0.236679,0.159164 -0.110588,0 -0.178801,-0.05271 -0.06821,-0.05271 -0.09922,-0.142627 -0.03101,-0.08992 -0.03101,-0.200505 v -0.557073 q 0,-0.125057 0.02687,-0.220142 0.02687,-0.09612 0.09405,-0.149862 0.06718,-0.05374 0.188102,-0.05374 0.10232,0 0.159164,0.05168 0.05788,0.05168 0.07751,0.139527 V 53.58703 h 0.377238 v 1.32912 q 0,0.26355 -0.121957,0.376205 -0.120923,0.113688 -0.382406,0.113688 z m 0.04031,-0.73794 q 0.08682,0 0.08682,-0.157097 v -0.5271 q 0,-0.04237 -0.02481,-0.08682 -0.02377,-0.04444 -0.06615,-0.04444 -0.05374,0 -0.06718,0.04031 -0.01344,0.03927 -0.01344,0.09095 v 0.5271 q 0,0.05581 0.01344,0.106454 0.01447,0.05064 0.07131,0.05064 z"
       id="path1108"
       style="font-weight:bold;font-size:2.11667px;font-family:Anton;-inkscape-font-specification:'Anton Bold';stroke-width:0.529167;stroke-linecap:round;fill:#000000"
       transform="translate(-1.2291667e-6)" /></g></svg>
