<?xml version="1.0" encoding="UTF-8" standalone="no"?>
<!-- Created with Inkscape (http://www.inkscape.org/) -->

<svg
   width="16.933332mm"
   height="16.933332mm"
   viewBox="0 0 16.933332 16.933332"
   version="1.1"
   id="svg31468"
   inkscape:version="1.2.2 (b0a8486541, 2022-12-01)"
   sodipodi:docname="imc.svg"
   xmlns:inkscape="http://www.inkscape.org/namespaces/inkscape"
   xmlns:sodipodi="http://sodipodi.sourceforge.net/DTD/sodipodi-0.dtd"
   xmlns="http://www.w3.org/2000/svg"
   xmlns:svg="http://www.w3.org/2000/svg">
  <sodipodi:namedview
     id="namedview31470"
     pagecolor="#ffffff"
     bordercolor="#000000"
     borderopacity="0.25"
     inkscape:showpageshadow="2"
     inkscape:pageopacity="0.0"
     inkscape:pagecheckerboard="0"
     inkscape:deskcolor="#d1d1d1"
     inkscape:document-units="mm"
     showgrid="false"
     inkscape:zoom="6.5495572"
     inkscape:cx="11.374815"
     inkscape:cy="40.918797"
     inkscape:window-width="1920"
     inkscape:window-height="969"
     inkscape:window-x="0"
     inkscape:window-y="0"
     inkscape:window-maximized="1"
     inkscape:current-layer="layer1" />
  <defs
     id="defs31465" />
  <g
     inkscape:label="Layer 1"
     inkscape:groupmode="layer"
     id="layer1"
     transform="translate(-112.79357,-97.407845)">
    <path
       id="path60509"
       style="fill:none;stroke:#000000;stroke-width:0.529167;stroke-linecap:round;stroke-dasharray:none"
       d="m 109.60804,55.971199 c 0,0 0.16471,-0.59377 0.40941,-1.02873 0.29543,-0.52513 0.51026,-0.90976 0.51026,-0.90976 m -0.82502,2.95692 c 0,0 -0.72283,10e-4 -1.0442,-0.14029 -0.18967,-0.0836 -0.46734,-0.19192 -0.47693,-0.39897 -0.009,-0.20457 0.23614,-0.3789 0.43279,-0.43608 0.66586,-0.19359 0.9367,0.10827 1.20531,-0.12846 0.63063,-0.55577 1.21514,-1.16557 1.21514,-1.16557 0,0 -0.58061,-1.15642 -1.0848,-1.52272 -0.12464,-0.0905 -0.44087,-0.1387 -0.44087,-0.1387 m 0.36786,-1.37425 c 0,0 -0.0831,0.0141 -0.18501,0.037 -0.10194,0.0229 -0.22275,0.0546 -0.29823,0.0897 m -2.39504,8.12645 c 0,0 1.25282,-0.47518 1.78979,-0.92445 1.14983,-0.96206 1.15594,-1.6065 1.15594,-1.6065 m -1.34284,-6.59819 -0.0727,0.91238 c 0,0 -1.11924,0.61146 -1.56194,1.0581 -0.17212,0.17366 -0.34782,0.37344 -0.40599,0.61092 -0.0439,0.17928 0.002,0.37497 0.0587,0.5506 0.079,0.24453 0.43089,0.65184 0.43089,0.65184 0,0 -0.79879,0.26433 -1.13152,0.51025 -0.42495,0.31409 -0.83893,0.78857 -1.04701,1.19032 -0.29744,0.57428 -0.38148,1.33174 -0.10412,1.93739 0.27736,0.60566 0.85493,0.94021 1.36581,1.1708 0.41572,0.18764 0.64295,0.2584 0.865,0.53654 0.22206,0.27815 0.55927,1.26146 0.55927,1.26146 h 3.39293 c 0,0 0.36515,-1.10801 0.25989,-1.65632 -0.15606,-0.8129 -0.30488,-1.49247 -1.26636,-2.13609 -0.14582,-0.0976 -0.24175,-0.41716 -0.24175,-0.41716 0,0 0.26567,-0.003 0.45888,-0.15191 1.82903,-1.51683 2.36106,-1.56566 2.20111,-2.19898 -0.89117,-1.70316 -1.6012,-2.9577 -2.48569,-2.95415 l 0.0579,-1.98179 m -2.72025,0.05281 c 0,0 0.0826,0.38886 0.14566,0.57132 0.063,0.18245 0.23259,0.52341 0.23259,0.52341 0,0 0.69458,0.079 1.0087,-0.0417 0.53895,-0.20711 1.33324,-1.1058 1.33324,-1.1058 m 0.33878,0.09196 c 0,0 0.32889,-0.63714 0.34688,-0.98467 0.0209,-0.40351 -0.0463,-0.850969 -0.28255,-1.178769 -0.25802,-0.35803 -0.70096,-0.57348 -1.12373,-0.70005 -0.37451,-0.1121 -0.80085,-0.15027 -1.17244,-0.0288 -0.46373,0.15155 -0.88742,0.48815 -1.15954,0.89308 -0.20237,0.30111 -0.34879,0.691399 -0.28921,1.049269 0.0604,0.36258 0.62162,0.91078 0.62162,0.91078 0,0 -0.004,-0.45124 0.017,-0.67748 0.0211,-0.22624 0.10936,-0.67995 0.10936,-0.67995 0,0 0.93099,0.66926 1.41976,0.90203 0.48877,0.23277 1.51286,0.49459 1.51286,0.49459 z"
       transform="translate(14.671603,51.861692)"
       sodipodi:nodetypes="csccccccccccccccccccccccscssccccccccccccccccccccccccscc" />
    <rect
       width="4.2333331"
       height="5.2916665"
       x="115.52615"
       y="100.47858"
       rx="0.52916664"
       id="rect17619"
       style="fill:none;stroke:#000000;stroke-width:0.529167;stroke-linecap:round;stroke-dasharray:none" />
    <line
       x1="116.58448"
       x2="118.70115"
       y1="101.53691"
       y2="101.53691"
       id="line17621"
       style="fill:none;stroke:#000000;stroke-width:0.529167;stroke-linecap:round;stroke-dasharray:none" />
    <line
       x1="118.70115"
       x2="118.70115"
       y1="103.65359"
       y2="104.71191"
       id="line17623"
       style="fill:none;stroke:#000000;stroke-width:0.529167;stroke-linecap:round;stroke-dasharray:none" />
    <path
       d="m 118.70115,102.59524 h 0.003"
       id="path17625"
       style="fill:none;stroke:#000000;stroke-width:0.529167;stroke-linecap:round;stroke-dasharray:none" />
    <path
       d="m 117.64282,102.59524 h 0.003"
       id="path17627"
       style="fill:none;stroke:#000000;stroke-width:0.529167;stroke-linecap:round;stroke-dasharray:none" />
    <path
       d="m 116.58449,102.59524 h 0.003"
       id="path17629"
       style="fill:none;stroke:#000000;stroke-width:0.529167;stroke-linecap:round;stroke-dasharray:none" />
    <path
       d="m 117.64282,103.65358 h 0.003"
       id="path17631"
       style="fill:none;stroke:#000000;stroke-width:0.529167;stroke-linecap:round;stroke-dasharray:none" />
    <path
       d="m 116.58449,103.65358 h 0.003"
       id="path17633"
       style="fill:none;stroke:#000000;stroke-width:0.529167;stroke-linecap:round;stroke-dasharray:none" />
    <path
       d="m 117.64282,104.71191 h 0.003"
       id="path17635"
       style="fill:none;stroke:#000000;stroke-width:0.529167;stroke-linecap:round;stroke-dasharray:none" />
    <path
       d="m 116.58449,104.71191 h 0.003"
       id="path17637"
       style="fill:none;stroke:#000000;stroke-width:0.529167;stroke-linecap:round;stroke-dasharray:none" />
  </g>
</svg>
