<?xml version="1.0" encoding="UTF-8" standalone="no"?>
<!-- Created with Inkscape (http://www.inkscape.org/) -->

<svg
   width="16.933332mm"
   height="16.933332mm"
   viewBox="0 0 16.933332 16.933333"
   version="1.1"
   id="svg5"
   xml:space="preserve"
   inkscape:version="1.2.2 (b0a8486541, 2022-12-01)"
   sodipodi:docname="newborn.svg"
   xmlns:inkscape="http://www.inkscape.org/namespaces/inkscape"
   xmlns:sodipodi="http://sodipodi.sourceforge.net/DTD/sodipodi-0.dtd"
   xmlns="http://www.w3.org/2000/svg"
   xmlns:svg="http://www.w3.org/2000/svg"><sodipodi:namedview
     id="namedview7"
     pagecolor="#ffffff"
     bordercolor="#000000"
     borderopacity="0.25"
     inkscape:showpageshadow="2"
     inkscape:pageopacity="0.0"
     inkscape:pagecheckerboard="0"
     inkscape:deskcolor="#d1d1d1"
     inkscape:document-units="mm"
     showgrid="false"
     inkscape:zoom="7.3832055"
     inkscape:cx="45.373246"
     inkscape:cy="45.779574"
     inkscape:window-width="1920"
     inkscape:window-height="969"
     inkscape:window-x="0"
     inkscape:window-y="0"
     inkscape:window-maximized="1"
     inkscape:current-layer="svg5" /><defs
     id="defs2" /><path
     d="m 7.1523068,9.8239353 h 0.007"
     id="path736"
     style="fill:none;stroke:#000000;stroke-width:0.92604167;stroke-linecap:round;stroke-dasharray:none" /><path
     d="m 10.628987,9.8239353 h 0.007"
     id="path738"
     style="fill:none;stroke:#000000;stroke-width:0.92604167;stroke-linecap:round;stroke-dasharray:none" /><path
     d="m 7.7317468,12.141727 c 0.28972,0.173823 0.69533,0.289725 1.1589,0.289725 0.46357,0 0.86916,-0.115897 1.1589002,-0.289725"
     id="path740"
     style="fill:none;stroke:#000000;stroke-width:0.66145833;stroke-linecap:round;stroke-dasharray:none" /><path
     d="m 12.946777,6.5210803 c 0.52497,0.658062 0.88283,1.433425 1.04301,2.259848 0.87166,0.422164 0.87166,1.6638497 0,2.0860137 -1.17834,5.495601 -9.0199342,5.495601 -10.1982742,0 -0.871661,-0.422164 -0.871661,-1.6638497 0,-2.0860137 0.0077,-0.03788 0.01586,-0.07559 0.02439,-0.113131 0.0085,-0.03754 0.01745,-0.07491 0.02675,-0.112109 0.0093,-0.0372 0.01901,-0.07422 0.02909,-0.111063 0.01008,-0.03684 0.02055,-0.07351 0.0314,-0.109992 0.01085,-0.03648 0.02207,-0.07278 0.03368,-0.108897 0.0116,-0.03611 0.02358,-0.07204 0.03592,-0.107778 0.01234,-0.03574 0.02506,-0.07128 0.03814,-0.106635 0.01308,-0.03535 0.02652,-0.07051 0.04033,-0.105468 0.0138,-0.03496 0.02797,-0.06972 0.04249,-0.104276 m 3.999074,-3.130066 c 0.0372,-0.0058 0.0746,-0.01124 0.11207,-0.01627 0.0375,-0.005 0.0751,-0.0096 0.11276,-0.01387 0.0377,-0.0042 0.0755,-0.008 0.11341,-0.01144 0.0379,-0.0034 0.0759,-0.0064 0.11403,-0.009 0.0381,-0.0026 0.0763,-0.0048 0.11462,-0.0065 0.0383,-0.0018 0.0767,-0.0031 0.11519,-0.004 0.0385,-9.23e-4 0.0771,-0.0014 0.11572,-0.0015 1.1589002,0 2.0280602,0.637394 2.0280602,1.44862 0,0.811228 -0.52149,1.448622 -1.1589002,1.448622 -0.46354,0 -0.86916,-0.231781 -0.86916,-0.57945"
     id="path742"
     style="fill:none;stroke:#000000;stroke-width:0.58208333;stroke-linecap:round;stroke-dasharray:none"
     sodipodi:nodetypes="cccccssssssssccsssssscssc" /><path
     d="m 3.4823028,3.5321893 a 0.52916666,0.52916666 0 0 0 -0.504032,0.386291 l -0.660135,2.391834 a 0.52916666,0.52916666 0 0 0 0.502708,0.661458 h 4.233334 a 0.52916666,0.52916666 0 0 0 0.50932,-0.672042 l -0.66807,-2.370666 a 0.52916666,0.52916666 0 0 0 -0.508,-0.396875 z"
     id="path14929"
     style="fill:none;stroke:#000000;stroke-width:0.529167;stroke-linecap:round;stroke-dasharray:none" /><path
     d="m 4.9122178,6.1697503 q -0.10748,0 -0.185,-0.01137 -0.0765,-0.01034 -0.13746,-0.03824 -0.061,-0.02791 -0.121956,-0.07855 l 0.125056,-0.21394 q 0.13539,0.08062 0.27079,0.08062 0.0889,0 0.13229,-0.05684 0.0434,-0.05684 0.0434,-0.147795 v -0.151929 q -0.0444,0.159164 -0.23668,0.159164 -0.11059,0 -0.1788,-0.05271 -0.0682,-0.05271 -0.0992,-0.142627 -0.031,-0.08992 -0.031,-0.200505 v -0.557073 q 0,-0.125057 0.0269,-0.220142 0.0269,-0.09612 0.094,-0.149862 0.0672,-0.05374 0.1881,-0.05374 0.10232,0 0.15916,0.05168 0.0579,0.05168 0.0775,0.139527 v -0.174681 h 0.37724 v 1.32912 q 0,0.26355 -0.12195,0.376205 -0.12093,0.113688 -0.38241,0.113688 z m 0.0403,-0.73794 q 0.0868,0 0.0868,-0.157097 v -0.5271 q 0,-0.04237 -0.0248,-0.08682 -0.0238,-0.04444 -0.0662,-0.04444 -0.0537,0 -0.0672,0.04031 -0.0134,0.03927 -0.0134,0.09095 v 0.5271 q 0,0.05581 0.0134,0.106454 0.0145,0.05064 0.0713,0.05064 z"
     id="path1108"
     style="font-weight:bold;font-size:2.11667px;font-family:Anton;-inkscape-font-specification:'Anton Bold';fill:#000000;stroke-width:0.529167;stroke-linecap:round" /><circle
     cx="4.9374971"
     cy="2.7384393"
     r="0.79374999"
     id="circle14927"
     style="fill:none;stroke:#000000;stroke-width:0.529167;stroke-linecap:round;stroke-dasharray:none" /></svg>
